<svg width="21" height="21" viewBox="0 0 21 21" fill="none" xmlns="http://www.w3.org/2000/svg"><path d="M10.5683 4.60214C9.08837 4.60214 7.88376 5.80676 7.88376 7.28673 7.88376 8.76671 9.08837 9.97132 10.5683 9.97132 12.0483 9.97132 13.2529 8.76671 13.2529 7.28673 13.2529 5.80676 12.0483 4.60214 10.5683 4.60214zm0 4.60215C9.511 9.20429 8.65078 8.34407 8.65078 7.28673 8.65078 6.22939 9.511 5.36917 10.5683 5.36917 11.6257 5.36917 12.4859 6.22939 12.4859 7.28673 12.4859 8.34407 11.6257 9.20429 10.5683 9.20429z" fill="#fff"/><path d="M15.7012 2.15419C14.3121.765108 12.4651.0 10.5007.0 8.53599.0 6.68938.765108 5.3003 2.15419 2.72961 4.72449 2.41015 9.56059 4.60844 12.4906L10.5007 21l5.8835-8.4975C18.5913 9.56059 18.2718 4.72449 15.7012 2.15419zM15.7621 12.0542 10.5007 19.6523 5.23088 12.0423C3.237 9.38379 3.52272 5.01635 5.84297 2.69648 7.08708 1.45236 8.74117.767025 10.5007.767025 12.2603.767025 13.9144 1.45236 15.1589 2.69648 17.4791 5.01635 17.7648 9.38379 15.7621 12.0542z" fill="#fff"/></svg>