<svg width="88" height="88" viewBox="0 0 88 88" fill="none" xmlns="http://www.w3.org/2000/svg"><g clip-path="url(#clip0_5_2)" filter="url(#filter0_d_5_2)"><path d="M57.3893 4.62187C57.5719 4.62187 57.756 4.58453 57.9333 4.50453 58.3146 4.33391 58.7013 4.1725 59.0933 4.02453 59.7827 3.76188 60.1293 2.9925 59.8666 2.30453 59.6052 1.61516 58.8346 1.27391 58.1479 1.52985 57.7065 1.69782 57.2705 1.87922 56.8426 2.07125 56.1705 2.37266 55.8693 3.16188 56.1719 3.83391 56.3933 4.32844 56.8787 4.62187 57.3893 4.62187z" fill="#d4c17f"/><path d="M57.3333 33.5377C58.0707 33.5377 58.6666 32.9418 58.6666 32.2045V31.9738C58.6666 31.6232 58.6893 31.2792 58.7333 30.9406 58.8293 30.2099 58.3146 29.5406 57.5866 29.4446 56.8346 29.3487 56.1866 29.8632 56.0893 30.5926 56.0307 31.0432 55.9999 31.5085 55.9999 31.974V32.2046C56 32.9418 56.596 33.5377 57.3333 33.5377z" fill="#d4c17f"/><path d="M50.6666 33.8671C51.404 33.8671 51.9999 33.2698 51.9999 32.5338V31.1792C51.9999 30.4432 51.404 29.8459 50.6666 29.8459 49.9293 29.8459 49.3333 30.4432 49.3333 31.1792V32.5338C49.3333 33.2698 49.9293 33.8671 50.6666 33.8671z" fill="#d4c17f"/><path d="M58.3227 12.7778C57.8933 13.0137 57.4733 13.2684 57.0694 13.5392 56.4574 13.9486 56.2921 14.7778 56.7015 15.3898 56.9588 15.7739 57.3815 15.9804 57.8108 15.9804 58.0668 15.9804 58.3241 15.9084 58.5508 15.7551 58.8935 15.5271 59.2468 15.3125 59.6094 15.1125 60.2535 14.7578 60.4894 13.9457 60.1347 13.3018 59.7786 12.6565 58.9693 12.4245 58.3227 12.7778z" fill="#d4c17f"/><path d="M39.4107 12.6419C39.6628 13.0445 40.096 13.2659 40.5401 13.2659 40.7828 13.2659 41.0281 13.2006 41.2468 13.0619 41.8709 12.6698 42.0601 11.8472 41.6682 11.2245 41.4162 10.8231 41.1549 10.4312 40.8803 10.0472 40.4523 9.44859 39.6217 9.30859 39.0203 9.73921 38.4203 10.1686 38.2829 11.0006 38.7109 11.5992 38.9546 11.9392 39.1881 12.2872 39.4107 12.6419z" fill="#d4c17f"/><path d="M63.788 2.82187C63.8427 2.82187 63.9 2.8178 63.956 2.81124 64.368 2.75921 64.7854 2.71921 65.2066 2.68984 65.9425 2.64046 66.4972 2.00578 66.4493 1.27125 66.4013.536559 65.756-.0193774 65.0307.0298413 64.556.0604662 64.0866.107185 63.6227.165779 62.8921.25781 62.3733.924371 62.4668 1.65515 62.5507 2.32843 63.1254 2.82187 63.788 2.82187z" fill="#d4c17f"/><path d="M58.844 24.7218C58.344 25.2618 58.3746 26.1059 58.9133 26.6059 59.1721 26.8445 59.496 26.9618 59.8213 26.9618 60.1799 26.9618 60.536 26.8192 60.7999 26.5351 61.0772 26.2365 61.3826 25.9537 61.7079 25.6951 62.2852 25.2365 62.3811 24.3978 61.9225 23.8218 61.4652 23.2459 60.6252 23.1471 60.0493 23.6071 59.6186 23.9484 59.2133 24.3245 58.844 24.7218z" fill="#d4c17f"/><path d="M46.7519 13.0619C46.9719 13.2005 47.2173 13.2659 47.4599 13.2659 47.904 13.2659 48.3373 13.0445 48.5893 12.6419 48.8119 12.2872 49.0452 11.9392 49.2893 11.5992 49.7173 11.0006 49.5799 10.1686 48.9799 9.73921 48.3785 9.30859 47.5479 9.44859 47.1199 10.0472 46.8452 10.4312 46.5826 10.8231 46.3319 11.2245 45.9401 11.8472 46.1293 12.6698 46.7519 13.0619z" fill="#d4c17f"/><path d="M57.3333 39.9738C58.0707 39.9738 58.6666 39.3765 58.6666 38.6405V37.9738C58.6666 37.2379 58.0707 36.6406 57.3333 36.6406 56.596 36.6406 56.0001 37.2379 56.0001 37.9738V38.6405C56.0001 39.3765 56.596 39.9738 57.3333 39.9738z" fill="#d4c17f"/><path d="M50.6387 27.091C50.7001 27.1004 50.7601 27.1043 50.8201 27.1043 51.476 27.1043 52.0494 26.619 52.1413 25.9496 52.196 25.539 52.2693 25.1337 52.3599 24.7337 52.524 24.0151 52.0732 23.3017 51.3546 23.139 50.636 22.9764 49.9213 23.4257 49.7587 24.1443 49.6519 24.6203 49.564 25.1029 49.4973 25.591 49.3987 26.3204 49.9107 26.9924 50.6387 27.091z" fill="#d4c17f"/><path d="M41.5613 17.1792C41.6946 17.5739 41.8146 17.9725 41.9254 18.3778 42.0868 18.971 42.6254 19.3618 43.2107 19.3618 43.3266 19.3618 43.444 19.3459 43.5613 19.3139 43.7266 19.2698 43.8707 19.1898 43.9999 19.0953 44.1293 19.1899 44.2732 19.2699 44.4385 19.3139 44.5559 19.3459 44.6732 19.3618 44.7891 19.3618 45.3745 19.3618 45.9132 18.9712 46.0745 18.3778 46.1851 17.9725 46.3038 17.5737 46.4385 17.1792 46.6771 16.4818 46.3026 15.7245 45.6065 15.4871 44.9665 15.2686 44.2918 15.5818 43.9998 16.1739 43.7077 15.5818 43.0331 15.2686 42.3931 15.4871 41.696 15.7245 41.3227 16.4818 41.5613 17.1792z" fill="#d4c17f"/><path d="M51.7854 8.20842C52.096 8.20842 52.408 8.10045 52.6601 7.8817 52.976 7.60701 53.3001 7.34029 53.6307 7.08576 54.2147 6.63639 54.3227 5.80045 53.8747 5.21639 53.4254 4.63233 52.588 4.5217 52.0054 4.97233 51.6307 5.26029 51.2654 5.55904 50.9107 5.86967 50.3548 6.35232 50.296 7.19498 50.7801 7.75107 51.0427 8.05388 51.4133 8.20842 51.7854 8.20842z" fill="#d4c17f"/><path d="M52.8213 17.5418C52.528 17.9312 52.2507 18.3339 51.9907 18.7471 51.5974 19.3698 51.7854 20.1939 52.408 20.5871 52.6294 20.7245 52.8733 20.7912 53.1174 20.7912 53.5601 20.7912 53.9933 20.5712 54.2468 20.1685 54.4682 19.8179 54.7027 19.4765 54.9521 19.1471 55.3948 18.5592 55.2774 17.7231 54.6894 17.2792 54.1001 16.8351 53.264 16.9565 52.8213 17.5418z" fill="#d4c17f"/><path d="M65.3027 10.6939C64.8094 10.7312 64.3241 10.7898 63.8454 10.8686 63.1186 10.9886 62.6268 11.6753 62.7468 12.4018 62.8535 13.0551 63.4174 13.5178 64.06 13.5178 64.1321 13.5178 64.2041 13.5125 64.2774 13.5004 64.6841 13.4337 65.0933 13.3845 65.508 13.3525 66.2427 13.2951 66.7921 12.6539 66.7347 11.9192 66.6772 11.1858 66.0519 10.6312 65.3027 10.6939z" fill="#d4c17f"/><path d="M70.236 2.92047C70.6507 2.98719 71.0639 3.06578 71.4719 3.15516 71.5692 3.17656 71.6639 3.18578 71.7586 3.18578 72.3719 3.18578 72.9227 2.76172 73.06 2.13906 73.2174 1.41906 72.7627.708441 72.0427.551098 71.5841.449848 71.1227.36313 70.6547.288442 69.928.168442 69.2453.668441 69.1294 1.39516 69.0133 2.12188 69.508 2.80578 70.236 2.92047z" fill="#d4c17f"/><path d="M72.5172 11.6525C72.0572 11.4884 71.5892 11.3419 71.1158 11.2165 70.4078 11.0325 69.6758 11.4525 69.4852 12.1645 69.2972 12.8765 69.7211 13.6058 70.4331 13.7951 70.8345 13.9004 71.2291 14.0231 71.6158 14.1631 71.7652 14.2164 71.9158 14.2417 72.0664 14.2417 72.6131 14.2417 73.1264 13.9017 73.3211 13.3576 73.5706 12.6645 73.2092 11.9004 72.5172 11.6525z" fill="#d4c17f"/><path d="M66.1239 21.3204C65.388 21.3578 64.8213 21.9831 64.8586 22.7178 64.8946 23.4537 65.4719 24.0137 66.256 23.9831 66.6653 23.9631 67.088 23.9751 67.4933 24.0164 67.54 24.0217 67.5866 24.0231 67.6321 24.0231 68.308 24.0231 68.8853 23.5125 68.9574 22.8271 69.032 22.0939 68.4988 21.4392 67.7667 21.3631 67.2266 21.3084 66.668 21.2912 66.1239 21.3204z" fill="#d4c17f"/><path d="M81.6813 8.87247C81.9439 9.16044 82.3053 9.30716 82.6666 9.30716 82.988 9.30716 83.3092 9.19247 83.5652 8.95919 84.1092 8.46326 84.1478 7.61919 83.6519 7.07513 83.4919 6.90045 83.3292 6.72841 83.1652 6.56045 82.6478 6.03373 81.8052 6.02717 81.2798 6.5417 80.7519 7.05638 80.7452 7.90029 81.2584 8.42701 81.4027 8.57247 81.5439 8.72185 81.6813 8.87247z" fill="#d4c17f"/><path d="M61.3333 50.6404H45.3334C44.596 50.6404 44.0001 51.2377 44.0001 51.9736 44.0001 52.7096 44.596 53.3069 45.3334 53.3069H61.3333C65.0719 53.3069 68 50.379 68 46.6402V43.9735C68 43.2376 67.4041 42.6402 66.6667 42.6402H21.3334C20.5961 42.6402 20.0001 43.2376 20.0001 43.9735V46.6402C20.0001 50.3788 22.9281 53.3069 26.6668 53.3069H38.6668V59.9736C38.6668 60.7096 39.2627 61.3069 40.0001 61.3069 40.7374 61.3069 41.3334 60.7096 41.3334 59.9736v-8C41.3334 51.2377 40.7374 50.6404 40.0001 50.6404H26.6668c-2.2439999999999998.0-4-1.757399999999997-4-4V45.3071H65.3335V46.6404C65.3333 48.883 63.5772 50.6404 61.3333 50.6404z" fill="#d4c17f"/><path d="M74.6466 31.4018C74.6599 31.5898 74.6666 31.7818 74.6666 31.9738 74.6666 32.7098 75.2625 33.3071 75.9999 33.3071 76.7372 33.3071 77.3332 32.7098 77.3332 31.9738 77.3332 31.7179 77.3238 31.4645 77.3052 31.2124 77.2532 30.4792 76.6292 29.9245 75.8811 29.9765 75.1466 30.0298 74.5946 30.6671 74.6466 31.4018z" fill="#d4c17f"/><path d="M71.8306 24.0831C71.3439 24.6364 71.3974 25.4778 71.9492 25.9657 72.2586 26.2378 72.5478 26.5351 72.8092 26.8498 73.0746 27.1671 73.4533 27.3298 73.836 27.3298 74.136 27.3298 74.4386 27.2285 74.688 27.0218 75.2533 26.5498 75.3307 25.7098 74.8586 25.1432 74.5107 24.7245 74.1239 24.3273 73.7119 23.9645 73.1613 23.4792 72.3186 23.5298 71.8306 24.0831z" fill="#d4c17f"/><path d="M45.3334 30.5657C45.3334 29.8298 44.7374 29.2324 44.0001 29.2324 43.2627 29.2324 42.6668 29.8298 42.6668 30.5657V32.0484C42.6668 32.7843 43.2627 33.3817 44.0001 33.3817 44.7374 33.3817 45.3334 32.7843 45.3334 32.0484V30.5657z" fill="#d4c17f"/><path d="M44.0001 36.6404C43.2627 36.6404 42.6668 37.2377 42.6668 37.9737V38.6404C42.6668 39.3763 43.2627 39.9737 44.0001 39.9737 44.7374 39.9737 45.3334 39.3763 45.3334 38.6404V37.9737C45.3334 37.2377 44.7373 36.6404 44.0001 36.6404z" fill="#d4c17f"/><path d="M49.3333 38.6404C49.3333 39.3763 49.9293 39.9737 50.6666 39.9737 51.404 39.9737 51.9999 39.3763 51.9999 38.6404V37.9737C51.9999 37.2377 51.404 36.6404 50.6666 36.6404 49.9293 36.6404 49.3333 37.2377 49.3333 37.9737V38.6404z" fill="#d4c17f"/><path d="M45.3333 23.9739C45.3333 23.7632 45.336 23.5553 45.3427 23.3459 45.3586 22.7765 45.0107 22.2873 44.5121 22.0832 44.4615 22.0606 44.4041 22.0606 44.3507 22.0446 44.2507 22.0179 44.156 21.9779 44.048 21.9753 44.0348 21.9739 44.0227 21.9739 44.008 21.9739 44.0054 21.9739 44.0027 21.9753 44.0001 21.9753 43.9974 21.9753 43.9948 21.9739 43.9921 21.9739 43.9774 21.9739 43.9654 21.9739 43.9521 21.9753 43.8441 21.9779 43.748 22.0179 43.6494 22.0446 43.5962 22.0606 43.5374 22.0606 43.488 22.0832 42.9895 22.2873 42.6413 22.7765 42.6574 23.3459 42.6641 23.5553 42.6668 23.7632 42.6668 23.9739V24.6406C42.6668 25.3765 43.2627 25.9739 44.0001 25.9739 44.7374 25.9739 45.3333 25.3765 45.3333 24.6406V23.9739z" fill="#d4c17f"/><path d="M36.0001 38.6404C36.0001 39.3763 36.596 39.9737 37.3334 39.9737 38.0707 39.9737 38.6667 39.3763 38.6667 38.6404V37.9737C38.6667 37.2377 38.0707 36.6404 37.3334 36.6404 36.596 36.6404 36.0001 37.2377 36.0001 37.9737V38.6404z" fill="#d4c17f"/><path d="M37.3334 33.8671C38.0707 33.8671 38.6667 33.2698 38.6667 32.5338V31.1792C38.6667 30.4432 38.0707 29.8459 37.3334 29.8459 36.596 29.8459 36.0001 30.4432 36.0001 31.1792V32.5338C36.0001 33.2698 36.596 33.8671 37.3334 33.8671z" fill="#d4c17f"/><path d="M32.0001 38.6404V37.9737C32.0001 37.2377 31.4042 36.6404 30.6668 36.6404 29.9295 36.6404 29.3335 37.2377 29.3335 37.9737V38.6404C29.3335 39.3763 29.9295 39.9737 30.6668 39.9737 31.4042 39.9737 32.0001 39.3765 32.0001 38.6404z" fill="#d4c17f"/><path d="M13.312 27.0218C13.5614 27.2285 13.8626 27.3298 14.164 27.3298 14.5467 27.3298 14.9254 27.1671 15.1908 26.8498 15.4522 26.5351 15.7414 26.2378 16.0508 25.9657 16.6028 25.4778 16.6561 24.6364 16.1694 24.0831 15.684 23.5298 14.8414 23.4764 14.288 23.9643 13.8759 24.327 13.4892 24.7243 13.14 25.1431 12.6694 25.7098 12.7467 26.5498 13.312 27.0218z" fill="#d4c17f"/><path d="M77.3333 63.9738H49.3333V57.3071C49.3333 56.5711 48.7374 55.9738 48.0001 55.9738 47.2627 55.9738 46.6668 56.5711 46.6668 57.3071V65.3071C46.6668 66.043 47.2627 66.6403 48.0001 66.6403H76V73.307C76 75.5124 74.2053 77.307 72 77.307H16.0001C13.7948 77.307 12.0001 75.5124 12.0001 73.307V66.6403H42.7774C43.5148 66.6403 44.1107 66.043 44.1107 65.3071 44.1107 64.5711 43.5148 63.9738 42.7774 63.9738H10.6667C9.92936 63.9738 9.33343 64.5711 9.33343 65.3071V73.307C9.33343 76.983 12.324 79.9738 16.0001 79.9738H72C75.6759 79.9738 78.6667 76.9831 78.6667 73.307V65.3071C78.6666 64.5711 78.0706 63.9738 77.3333 63.9738z" fill="#d4c17f"/><path d="M36.0001 70.6403V73.307C36.0001 74.043 36.596 74.6403 37.3334 74.6403 38.0707 74.6403 38.6667 74.043 38.6667 73.307V70.6403C38.6667 69.9044 38.0707 69.3071 37.3334 69.3071 36.596 69.3071 36.0001 69.9044 36.0001 70.6403z" fill="#d4c17f"/><path d="M5.39344 25.9751C5.3775 25.9737 5.36141 25.9737 5.34547 25.9737 4.63219 25.9737 4.03875 26.5404 4.01485 27.2604 4.00547 27.4978 4.00016 27.7351 4.00016 27.9737 4.00016 28.7096 4.5961 29.307 5.33344 29.307 6.07078 29.307 6.66672 28.7096 6.66672 27.9737 6.66672 27.7657 6.67203 27.5604 6.67875 27.3537 6.70406 26.6178 6.12938 26.0004 5.39344 25.9751z" fill="#d4c17f"/><path d="M11.1534 17.4139C11.452 17.1259 11.7628 16.8512 12.0828 16.5898 12.6534 16.1231 12.7387 15.2831 12.2722 14.7139 11.8069 14.1445 10.9669 14.0565 10.3962 14.5245 10.0189 14.8339 9.65218 15.1578 9.30296 15.4965 8.77234 16.0072 8.75765 16.8512 9.26827 17.3818 9.52968 17.6525 9.8789 17.7886 10.2283 17.7886 10.5614 17.7884 10.8961 17.6645 11.1534 17.4139z" fill="#d4c17f"/><path d="M7.62812 19.6031C6.97078 19.2751 6.16672 19.539 5.83875 20.1978 5.62016 20.6325 5.41735 21.0792 5.2361 21.5337 4.96282 22.219 5.2961 22.9937 5.97875 23.267 6.14141 23.3323 6.30812 23.3629 6.47344 23.3629 7.00281 23.3629 7.50406 23.0456 7.71203 22.5243 7.86531 22.139 8.03609 21.7617 8.2214 21.3923 8.55203 20.7339 8.28671 19.9339 7.62812 19.6031z" fill="#d4c17f"/><path d="M10.0294 5.56311C10.2547 5.56311 10.4841 5.50576 10.6934 5.38576 11.0548 5.17779 11.4214 4.9817 11.7961 4.79904 12.4561 4.47373 12.7281 3.67373 12.4041 3.01374 12.0787 2.35233 11.2773 2.08171 10.6187 2.40577 10.192 2.61514 9.77343 2.8378 9.36281 3.07374 8.72546 3.4417 8.50547 4.25639 8.87343 4.89514 9.12015 5.32311 9.56937 5.56311 10.0294 5.56311z" fill="#d4c17f"/><path d="M22.6667 70.6403V73.307C22.6667 74.043 23.2626 74.6403 24 74.6403 24.7373 74.6403 25.3332 74.043 25.3332 73.307V70.6403C25.3332 69.9044 24.7373 69.3071 24 69.3071 23.2626 69.3071 22.6667 69.9044 22.6667 70.6403z" fill="#d4c17f"/><path d="M82.0212 23.2671C82.7039 22.9938 83.0372 22.2192 82.7639 21.5339 82.5825 21.0792 82.3798 20.6325 82.1612 20.1979 81.8319 19.5393 81.0306 19.2765 80.3719 19.6032 79.7133 19.9339 79.4478 20.7339 79.7786 21.3926 79.9639 21.762 80.1345 22.1393 80.288 22.5246 80.4959 23.046 80.9973 23.3632 81.5253 23.3632 81.6919 23.3631 81.8586 23.3324 82.0212 23.2671z" fill="#d4c17f"/><path d="M83.9853 27.2604C83.9612 26.5231 83.308 25.9324 82.6067 25.9751 81.8708 26.0004 81.2961 26.6178 81.3214 27.3537 81.3281 27.5604 81.3334 27.7657 81.3334 27.9737 81.3334 28.7096 81.9294 29.307 82.6667 29.307 83.4041 29.307 84 28.7096 84 27.9737 84 27.7351 83.9945 27.4978 83.9853 27.2604z" fill="#d4c17f"/><path d="M78.6359 3.0739C78.2266 2.83797 77.808 2.61531 77.3813 2.40594 76.7253 2.08328 75.9213 2.3539 75.5959 3.0139 75.2719 3.6739 75.5439 4.4739 76.2039 4.79921 76.5786 4.98187 76.9453 5.17796 77.3053 5.38593 77.5159 5.50593 77.7453 5.56327 77.9694 5.56327 78.4308 5.56327 78.88 5.32327 79.1267 4.89531 79.4945 4.25656 79.2745 3.44187 78.6359 3.0739z" fill="#d4c17f"/><path d="M65.3333 73.307V70.6403C65.3333 69.9044 64.7374 69.3071 64 69.3071 63.2627 69.3071 62.6668 69.9044 62.6668 70.6403V73.307C62.6668 74.043 63.2627 74.6403 64 74.6403 64.7374 74.6403 65.3333 74.043 65.3333 73.307z" fill="#d4c17f"/><path d="M52.0001 73.307V70.6403C52.0001 69.9044 51.4041 69.3071 50.6668 69.3071 49.9294 69.3071 49.3335 69.9044 49.3335 70.6403V73.307C49.3335 74.043 49.9294 74.6403 50.6668 74.6403 51.404 74.6403 52.0001 74.043 52.0001 73.307z" fill="#d4c17f"/><path d="M77.6039 14.5245C77.0319 14.0565 76.1919 14.1445 75.728 14.7139 75.2613 15.2833 75.3466 16.1233 75.916 16.5898 76.2374 16.8512 76.548 17.1258 76.8466 17.4139 77.1039 17.6645 77.4386 17.7886 77.7719 17.7886 78.1213 17.7886 78.4692 17.6526 78.7319 17.3818 79.2425 16.8512 79.2278 16.0072 78.6972 15.4965 78.348 15.1578 77.9813 14.8339 77.6039 14.5245z" fill="#d4c17f"/><path d="M12.1187 29.9765C11.3573 29.9259 10.7467 30.4792 10.6934 31.2124 10.6761 31.4645 10.6667 31.7177 10.6667 31.9738 10.6667 32.7098 11.2626 33.3071 12 33.3071 12.7373 33.3071 13.3333 32.7098 13.3333 31.9738 13.3333 31.7818 13.34 31.5898 13.3533 31.4018 13.4055 30.6671 12.8534 30.0298 12.1187 29.9765z" fill="#d4c17f"/><path d="M30.4134 29.4445C29.6854 29.5404 29.1707 30.2098 29.2667 30.9404 29.3107 31.279 29.3334 31.6231 29.3334 31.9737V32.2043C29.3334 32.9416 29.9293 33.5376 30.6667 33.5376 31.404 33.5376 32 32.9416 32 32.2043V31.9737C32 31.5084 31.9706 31.0431 31.9106 30.5923 31.8134 29.8631 31.1573 29.3471 30.4134 29.4445z" fill="#d4c17f"/><path d="M28.9067 4.02453C29.2987 4.1725 29.6853 4.33391 30.0667 4.50453 30.244 4.58453 30.4281 4.62187 30.6107 4.62187 31.1201 4.62187 31.6067 4.32859 31.8281 3.83391 32.1307 3.16188 31.8295 2.3725 31.1574 2.07125 30.7295 1.87922 30.2934 1.69797 29.8521 1.52985 29.1681 1.27391 28.3948 1.61516 28.1335 2.30453 27.8707 2.9925 28.2173 3.76188 28.9067 4.02453z" fill="#d4c17f"/><path d="M28.3907 15.1125C28.7521 15.3125 29.1067 15.5271 29.4493 15.7551 29.6773 15.9084 29.9334 15.9804 30.1893 15.9804 30.6187 15.9804 31.0413 15.7737 31.2987 15.3898 31.7081 14.7778 31.5428 13.9486 30.9307 13.5392 30.5254 13.2686 30.1067 13.0139 29.6774 12.7778 29.0307 12.4245 28.2215 12.6565 27.8654 13.3018 27.5107 13.9457 27.7467 14.7578 28.3907 15.1125z" fill="#d4c17f"/><path d="M5.33344 9.30717C5.69484 9.30717 6.05609 9.16045 6.31875 8.87248 6.45609 8.72186 6.5975 8.57248 6.7414 8.42717 7.25468 7.90046 7.24671 7.05655 6.72 6.54187 6.19594 6.02718 5.35328 6.03655 4.83469 6.56062 4.67063 6.72858 4.50797 6.90061 4.34797 7.0753 3.85203 7.61936 3.89063 8.46327 4.43469 8.95936 4.69078 9.19248 5.01203 9.30717 5.33344 9.30717z" fill="#d4c17f"/><path d="M26.292 25.6951C26.6173 25.9537 26.9226 26.2365 27.2 26.5351 27.464 26.8192 27.82 26.9618 28.1786 26.9618 28.5026 26.9618 28.8279 26.8445 29.0865 26.6059 29.6253 26.1059 29.6559 25.2618 29.1559 24.7218 28.7865 24.3245 28.3812 23.9485 27.9506 23.6071 27.3706 23.1485 26.5333 23.2457 26.0773 23.8218 25.6187 24.3978 25.7147 25.2365 26.292 25.6951z" fill="#d4c17f"/><path d="M33.7534 20.1684C34.0067 20.5711 34.4401 20.7911 34.8828 20.7911 35.1268 20.7911 35.3707 20.7243 35.5921 20.587 36.2148 20.1937 36.4028 19.3696 36.0095 18.747 35.7481 18.3337 35.4707 17.9311 35.1788 17.5417 34.7348 16.9564 33.9003 16.835 33.3109 17.279 32.7229 17.7231 32.6056 18.559 33.0482 19.147 33.2973 19.4765 33.532 19.8178 33.7534 20.1684z" fill="#d4c17f"/><path d="M34.3693 7.08576C34.6999 7.34045 35.024 7.60717 35.3399 7.8817 35.592 8.1017 35.904 8.20842 36.2146 8.20842 36.5867 8.20842 36.9573 8.05373 37.2199 7.75107 37.704 7.19513 37.6453 6.35248 37.0893 5.86967 36.7346 5.55904 36.3693 5.26029 35.9946 4.97233 35.412 4.5217 34.576 4.63233 34.1253 5.21639 33.6773 5.80045 33.7854 6.63654 34.3693 7.08576z" fill="#d4c17f"/><path d="M16.2414 3.18578C16.3361 3.18578 16.4308 3.17641 16.5267 3.15516 16.9361 3.06578 17.3494 2.98719 17.764 2.92047 18.492 2.80579 18.9867 2.12188 18.8708 1.39516 18.7561.668445 18.0748.167196 17.3454.288446 16.8775.363134 16.4148.449852 15.9575.551102 15.2375.708445 14.7828 1.41907 14.9401 2.13907 15.0773 2.76188 15.6281 3.18578 16.2414 3.18578z" fill="#d4c17f"/><path d="M22.7934 2.68984C23.2148 2.71921 23.632 2.75921 24.044 2.81124 24.1 2.81796 24.1573 2.82187 24.212 2.82187 24.8747 2.82187 25.4493 2.32859 25.5332 1.65515 25.6265.924526 25.1079.257809 24.3773.165778 23.9132.107184 23.444.0604654 22.9706.0298405 22.252-.0234407 21.5986.536558 21.5506 1.27124 21.5028 2.00577 22.0573 2.64046 22.7934 2.68984z" fill="#d4c17f"/><path d="M36.6454 23.1392C35.9268 23.3018 35.476 24.0151 35.6387 24.7339 35.7307 25.1338 35.8027 25.5392 35.8587 25.9498 35.9507 26.6192 36.5227 27.1045 37.1801 27.1045 37.2401 27.1045 37.3001 27.1004 37.3601 27.0912 38.0895 26.9926 38.6015 26.3206 38.5027 25.5912 38.436 25.1032 38.3481 24.6206 38.2413 24.1445 38.0787 23.4271 37.3601 22.9778 36.6454 23.1392z" fill="#d4c17f"/><path d="M15.9334 14.2418C16.0828 14.2418 16.2348 14.2165 16.384 14.1632 16.7708 14.0232 17.1654 13.9006 17.5667 13.7953 18.2787 13.6059 18.7026 12.8767 18.5147 12.1647 18.3253 11.4526 17.5947 11.0326 16.884 11.2167 16.4108 11.342 15.9426 11.4887 15.4826 11.6526 14.7906 11.9006 14.4294 12.6647 14.6786 13.3579 14.8734 13.9018 15.3867 14.2418 15.9334 14.2418z" fill="#d4c17f"/><path d="M22.492 13.3525C22.9067 13.3845 23.3161 13.4339 23.7226 13.5004 23.7959 13.5125 23.8679 13.5178 23.94 13.5178 24.5814 13.5178 25.1467 13.0551 25.2532 12.4019 25.3732 11.6751 24.8812 10.9886 24.1547 10.8686 23.6761 10.79 23.1906 10.7312 22.6973 10.6939 21.972 10.6298 21.3226 11.1845 21.2653 11.9192 21.2081 12.6539 21.7573 13.2951 22.492 13.3525z" fill="#d4c17f"/><path d="M20.3681 24.0231C20.4134 24.0231 20.4601 24.0217 20.5067 24.0164 20.912 23.975 21.3347 23.9631 21.744 23.9831 22.5108 24.0178 23.1054 23.4537 23.1414 22.7178 23.1787 21.9831 22.612 21.3578 21.8761 21.3204 21.3308 21.291 20.772 21.3084 20.2334 21.3631 19.5014 21.439 18.9681 22.0937 19.0428 22.8271 19.1147 23.5125 19.692 24.0231 20.3681 24.0231z" fill="#d4c17f"/></g><defs><filter id="filter0_d_5_2" x="0" y="0" width="88" height="88" filterUnits="userSpaceOnUse" color-interpolation-filters="sRGB"><feFlood flood-opacity="0" result="BackgroundImageFix"/><feColorMatrix in="SourceAlpha" type="matrix" values="0 0 0 0 0 0 0 0 0 0 0 0 0 0 0 0 0 0 127 0" result="hardAlpha"/><feOffset dy="4"/><feGaussianBlur stdDeviation="2"/><feComposite in2="hardAlpha" operator="out"/><feColorMatrix type="matrix" values="0 0 0 0 0 0 0 0 0 0 0 0 0 0 0 0 0 0 0.25 0"/><feBlend mode="normal" in2="BackgroundImageFix" result="effect1_dropShadow_5_2"/><feBlend mode="normal" in="SourceGraphic" in2="effect1_dropShadow_5_2" result="shape"/></filter><clipPath id="clip0_5_2"><path d="M0 0h80v80H0z" fill="#fff" transform="translate(4)"/></clipPath></defs></svg>