<svg width="20" height="20" viewBox="0 0 20 20" fill="none" xmlns="http://www.w3.org/2000/svg"><path d="M13.75.0H6.25C2.79875.0.0 2.79875.0 6.25v7.5C0 17.2013 2.79875 20 6.25 20h7.5C17.2013 20 20 17.2013 20 13.75V6.25C20 2.79875 17.2013.0 13.75.0zm4.375 13.75C18.125 16.1625 16.1625 18.125 13.75 18.125H6.25C3.8375 18.125 1.875 16.1625 1.875 13.75V6.25c0-2.4125 1.9625-4.375 4.375-4.375h7.5C16.1625 1.875 18.125 3.8375 18.125 6.25v7.5z" fill="#fff"/><path d="M10 5C7.23875 5 5 7.23875 5 10 5 12.7613 7.23875 15 10 15 12.7613 15 15 12.7613 15 10 15 7.23875 12.7613 5 10 5zm0 8.125C8.2775 13.125 6.875 11.7225 6.875 10 6.875 8.27625 8.2775 6.875 10 6.875 11.7225 6.875 13.125 8.27625 13.125 10 13.125 11.7225 11.7225 13.125 10 13.125z" fill="#fff"/><path d="M15.375 5.29123C15.743 5.29123 16.0412 4.99294 16.0412 4.62499 16.0412 4.25703 15.743 3.95874 15.375 3.95874 15.007 3.95874 14.7087 4.25703 14.7087 4.62499 14.7087 4.99294 15.007 5.29123 15.375 5.29123z" fill="#fff"/></svg>