<svg width="36" height="20" viewBox="0 0 36 20" fill="none" xmlns="http://www.w3.org/2000/svg"><path d="M34.8684 18.0622C34.8259 17.9707 34.7864 17.8948 34.7496 17.834 34.1414 16.7387 32.9792 15.3942 31.2636 13.8002L31.2273 13.7637 31.2092 13.7458 31.1908 13.7275H31.1724C30.3938 12.9852 29.9008 12.4861 29.6943 12.2306 29.3165 11.7439 29.2318 11.2512 29.4383 10.752 29.5842 10.3749 30.1322 9.57835 31.081 8.3614 31.58 7.71645 31.9753 7.19955 32.2672 6.81011 34.3723 4.01144 35.285 2.22306 35.005 1.44425L34.8962 1.26225C34.8232 1.15269 34.6346 1.05245 34.3307.961035 34.0262.869813 33.637.854728 33.1623.915521L27.9061.95183C27.8209.921657 27.6993.92447 27.5409.961035 27.3827.997601 27.3036 1.01595 27.3036 1.01595L27.2121 1.06165 27.1395 1.11657C27.0786 1.15288 27.0117 1.21674 26.9386 1.30803 26.8659 1.39899 26.8052 1.50575 26.7566 1.6274 26.1843 3.09967 25.5337 4.46851 24.8034 5.73386 24.3532 6.48838 23.9397 7.14227 23.5621 7.69593 23.185 8.2494 22.8687 8.65718 22.6133 8.91858 22.3576 9.18022 22.1269 9.38984 21.9196 9.54818 21.7127 9.70659 21.5547 9.77352 21.4454 9.74904 21.3357 9.72455 21.2325 9.70026 21.1347 9.67597 20.9645 9.5664 20.8276 9.41739 20.7243 9.22881 20.6207 9.04023 20.5508 8.80287 20.5143 8.51693 20.478 8.2308 20.4566 7.98469 20.4504 7.77776 20.4447 7.57109 20.4474 7.27875 20.4597 6.90159 20.4723 6.52424 20.478 6.26892 20.478 6.13506 20.478 5.67262 20.4871 5.17074 20.5051 4.62929 20.5236 4.08784 20.5384 3.65883 20.5509 3.34278 20.5633 3.02641 20.5691 2.6917 20.5691 2.33883 20.5691 1.98596 20.5476 1.70922 20.5051 1.50837 20.4632 1.30777 20.3988 1.11305 20.314.924278 20.2287.735697 20.1038.589819 19.9398.486259 19.7756.382827 19.5714.300747 19.3285.239761 18.6835.0938189 17.8623.0148707 16.8643.00259691 14.6013-.0216949 13.1472.124439 12.5023.440808 12.2468.574476 12.0155.757112 11.8088.98814 11.5897 1.25592 11.5592 1.40206 11.7173 1.4261 12.4475 1.53547 12.9644 1.79712 13.2686 2.21078L13.3783 2.42999C13.4635 2.58814 13.5487 2.86813 13.6339 3.26959 13.719 3.67104 13.7739 4.11513 13.7981 4.60161 13.8588 5.48998 13.8588 6.25044 13.7981 6.88305 13.7371 7.51592 13.6796 8.00859 13.6247 8.36146 13.5698 8.71433 13.4877 9.00027 13.3783 9.21922 13.2686 9.43823 13.1957 9.57209 13.1591 9.62067 13.1226 9.66926 13.0922 9.69988 13.068 9.71189 12.9099 9.7725 12.7454 9.80337 12.5752 9.80337 12.4047 9.80337 12.1979 9.7181 11.9546 9.54767 11.7114 9.37724 11.4589 9.14315 11.1973 8.845 10.9356 8.54678 10.6406 8.13005 10.3119 7.59474 9.98354 7.05942 9.64282 6.42675 9.28995 5.69672L8.998 5.16729C8.81549 4.82669 8.56618 4.33075 8.24981 3.67993 7.93325 3.02884 7.65345 2.39904 7.41021 1.79066 7.31298 1.53515 7.16691 1.34063 6.97225 1.20677L6.8809 1.15185C6.82017 1.10327 6.72269 1.05168 6.58895.996706 6.45503.941794 6.31529.902415 6.16915.878187L1.16831.914498C.657284.914498.310551 1.03027.127979 1.26149L.0549122 1.37086C.0184106 1.43178.0 1.52908.0 1.663.0 1.79686.0365016 1.96115.109569 2.15568.839601 3.87145 1.63349 5.52617 2.49125 7.12009 3.34901 8.71402 4.09438 9.99796 4.72693 10.9708 5.3596 11.9443 6.00448 12.8631 6.66157 13.7268 7.31867 14.5907 7.75362 15.1444 7.96643 15.3876 8.17949 15.6313 8.34685 15.8135 8.4685 15.9351L8.92487 16.3731C9.21688 16.6652 9.64569 17.015 10.2115 17.4225 10.7774 17.8303 11.404 18.2317 12.0914 18.6275 12.779 19.0226 13.5789 19.3451 14.4916 19.5944 15.4041 19.8441 16.2923 19.9442 17.1563 19.8959H19.2552C19.6809 19.8591 20.0034 19.7253 20.2226 19.4943L20.2952 19.4028C20.344 19.3302 20.3898 19.2173 20.4319 19.0655 20.4747 18.9134 20.4959 18.7459 20.4959 18.5636 20.4834 18.0405 20.5232 17.5691 20.6143 17.1493 20.7052 16.7297 20.8089 16.4134 20.9249 16.2003 21.0408 15.9874 21.1716 15.8078 21.3171 15.6622 21.463 15.5162 21.5669 15.4278 21.6279 15.3974 21.6885 15.3668 21.7369 15.346 21.7734 15.3335 22.0654 15.2362 22.4091 15.3305 22.8049 15.6167 23.2004 15.9026 23.5714 16.2557 23.9184 16.6753 24.2652 17.0953 24.6819 17.5665 25.1685 18.0896 25.6554 18.6129 26.0811 19.0018 26.446 19.2577L26.8109 19.4767C27.0546 19.6229 27.371 19.7567 27.7604 19.8784 28.1491 20 28.4897 20.0304 28.7822 19.9696L33.4543 19.8967C33.9164 19.8967 34.276 19.8202 34.5311 19.6684 34.7867 19.5163 34.9385 19.3488 34.9875 19.1665 35.0363 18.9841 35.0389 18.7771 34.9967 18.5457 34.9534 18.3148 34.9108 18.1534 34.8684 18.0622z" fill="#fff"/></svg>